<?xml version="1.0" encoding="UTF-8"?>
<svg xmlns="http://www.w3.org/2000/svg" width="300px" height="152px" viewBox="0 -.186 1350.04 682.02">
  <g fill="#E52521">
    <path d="M1.01 19.05l262.32 653.89c2.11 5.26 7.21 8.71 12.88 8.71h256.56c5.73 0 10.87-3.52 12.94-8.86l126.36-325.54c1.25-3.22 1.25-6.79.01-10.01L545.71 8.9c-2.06-5.36-7.21-8.9-12.96-8.9H13.9c-9.83 0-16.55 9.93-12.89 19.05Z"></path>
    <path d="M1073.82 0H817.26c-5.73 0-10.87 3.52-12.94 8.86L677.96 334.4c-1.25 3.22-1.25 6.79-.01 10.01l126.39 328.35c2.06 5.36 7.21 8.9 12.96 8.9h518.86c9.83 0 16.54-9.93 12.88-19.05L1086.71 8.71C1084.6 3.45 1079.5 0 1073.82 0Z"></path>
  </g>
</svg>
